<svg width="32" height="32" viewBox="0 0 32 32" fill="none" xmlns="http://www.w3.org/2000/svg">
<rect x="0.5" y="0.5" width="31" height="31" rx="15.5" stroke="#FFD489"/>
<path d="M22.434 11.7344H18.4448V12.6859H22.434V11.7344Z" fill="#FFD489"/>
<path fill-rule="evenodd" clip-rule="evenodd" d="M23.8506 16.1472C23.7217 15.6511 23.515 15.2087 23.2244 14.822C22.9343 14.4348 22.5645 14.1252 22.1137 13.8966C21.6612 13.6653 21.1329 13.5513 20.5301 13.5513C19.984 13.5513 19.491 13.6463 19.0439 13.8356C18.5969 14.0251 18.2129 14.285 17.8894 14.6146C17.5663 14.9416 17.3205 15.3322 17.1432 15.7842C16.969 16.235 16.8801 16.7228 16.8801 17.2449C16.8801 17.767 16.9655 18.2831 17.1356 18.7335C17.3077 19.1859 17.549 19.571 17.8595 19.8971C18.1781 20.2211 18.5568 20.4698 19.01 20.6475C19.4642 20.8231 19.9691 20.9123 20.5303 20.9123C21.336 20.9123 22.0272 20.7311 22.5934 20.3683C23.1668 20.0074 23.5875 19.4072 23.8641 18.5667H22.1407C22.0736 18.7832 21.9011 18.9913 21.6176 19.1859C21.3317 19.381 20.9904 19.4785 20.5958 19.4785C20.0468 19.4785 19.623 19.3378 19.33 19.057C19.0359 18.7762 18.8455 18.2536 18.8455 17.7018H23.9876C24.0241 17.1604 23.9795 16.6427 23.8511 16.1475L23.8506 16.1472ZM18.8451 16.4931C18.8543 16.3567 18.8842 16.2025 18.9344 16.0327C18.9842 15.8585 19.0705 15.6953 19.1971 15.541C19.3241 15.3887 19.4895 15.2598 19.6922 15.1564C19.8994 15.051 20.1584 14.9996 20.4708 14.9996C20.9518 14.9996 21.3459 15.136 21.578 15.3884C21.8117 15.6428 21.9828 16.0042 22.0295 16.4933H18.8448L18.8451 16.4931Z" fill="#FFD489"/>
<path fill-rule="evenodd" clip-rule="evenodd" d="M15.7956 16.3834C15.4983 15.9563 15.0494 15.6557 14.444 15.485C14.8889 15.279 15.2217 15.0138 15.4481 14.6898C15.673 14.3658 15.7854 13.9602 15.7854 13.4748C15.7854 13.0258 15.7102 12.6466 15.5604 12.3435C15.4066 12.0355 15.1921 11.7916 14.9179 11.6079C14.6396 11.4242 14.3099 11.2904 13.9238 11.2098C13.5353 11.1276 13.1105 11.0874 12.6398 11.0874H8V20.7308H12.7699C13.2108 20.7308 13.6415 20.6765 14.056 20.5685C14.4756 20.4605 14.8498 20.2947 15.176 20.0682C15.4995 19.8443 15.7617 19.5535 15.9541 19.1951C16.1452 18.8412 16.2407 18.4196 16.2412 17.9309C16.2412 17.3278 16.0949 16.8131 15.7958 16.3832L15.7956 16.3834ZM10.1669 12.7302H12.1944C12.3859 12.7302 12.5727 12.7436 12.7517 12.778C12.9335 12.8085 13.0899 12.8651 13.2286 12.9473C13.3682 13.0261 13.4789 13.139 13.5623 13.2827C13.6431 13.4265 13.6832 13.6116 13.6832 13.8362C13.6832 14.2403 13.5623 14.5351 13.3134 14.7132C13.0615 14.8944 12.7436 14.984 12.3596 14.984H10.1669V12.7304V12.7302ZM13.9498 18.4389C13.8624 18.6017 13.7427 18.7302 13.5974 18.8235C13.4526 18.9206 13.2809 18.9868 13.0868 19.0281C12.8958 19.07 12.6931 19.0883 12.4793 19.0883H10.1674V16.4331H12.5225C12.9892 16.4331 13.3682 16.5381 13.6526 16.7497C13.9366 16.9636 14.0793 17.3166 14.0793 17.8137C14.0793 18.0671 14.0371 18.277 13.9498 18.4387V18.4389Z" fill="#FFD489"/>
</svg>
