<svg width="32" height="32" viewBox="0 0 32 32" fill="none" xmlns="http://www.w3.org/2000/svg">
<rect x="0.5" y="0.5" width="31" height="31" rx="15.5" stroke="#262626"/>
<path d="M19.2106 9.14062H12.7898C10.7002 9.14062 9.00024 10.8064 9.00024 12.854V19.1456C9.00024 21.1932 10.7002 22.8589 12.7898 22.8589H19.2106C21.3001 22.8589 23.0001 21.1932 23.0001 19.1456V12.854C23.0001 10.8064 21.3001 9.14062 19.2106 9.14062ZM16.0002 19.7509C13.8893 19.7509 12.1721 18.0683 12.1721 15.9998C12.1721 13.9313 13.8893 12.2487 16.0002 12.2487C18.1111 12.2487 19.8282 13.9313 19.8282 15.9998C19.8282 18.0683 18.1111 19.7509 16.0002 19.7509ZM19.9196 13.1334C19.2959 13.1334 18.7886 12.6364 18.7886 12.025C18.7886 11.4135 19.2959 10.9168 19.9196 10.9168C20.5433 10.9168 21.0508 11.4138 21.0508 12.025C21.0508 12.6361 20.5435 13.1334 19.9196 13.1334Z" fill="#262626"/>
<path d="M18.1271 18.0834C19.3015 16.9326 19.3015 15.0669 18.1271 13.9161C16.9527 12.7653 15.0486 12.7653 13.8742 13.9161C12.6998 15.0669 12.6998 16.9326 13.8742 18.0834C15.0486 19.2342 16.9527 19.2342 18.1271 18.0834Z" fill="#262626"/>
</svg>
